<?xml version="1.0" standalone="no"?>
<!DOCTYPE svg PUBLIC "-//W3C//DTD SVG 20010904//EN"
 "http://www.w3.org/TR/2001/REC-SVG-20010904/DTD/svg10.dtd">
<svg version="1.0" xmlns="http://www.w3.org/2000/svg"
 width="1441.000000pt" height="499.000000pt" viewBox="0 0 1441.000000 499.000000"
 preserveAspectRatio="xMidYMid meet">

<g transform="translate(0.000000,499.000000) scale(0.100000,-0.100000)"
fill="#000000" stroke="none">
<path d="M10519 3711 c-74 -24 -108 -77 -109 -168 l0 -53 -60 0 c-57 0 -60 -1
-60 -25 0 -24 3 -25 60 -25 l60 0 0 -175 0 -175 30 0 30 0 0 175 0 175 85 0
c84 0 85 0 85 25 0 24 -2 24 -82 27 l-83 3 -3 30 c-5 44 16 103 43 121 16 11
40 15 69 12 40 -3 46 -1 51 21 3 13 5 25 3 26 -9 9 -97 13 -119 6z"/>
<path d="M8730 3400 l0 -310 30 0 30 0 0 310 0 310 -30 0 -30 0 0 -310z"/>
<path d="M8190 3385 l0 -295 30 0 30 0 0 95 0 95 83 0 c147 1 228 34 267 110
24 46 26 125 6 174 -18 43 -78 92 -132 105 -23 6 -97 11 -163 11 l-121 0 0
-295z m290 217 c43 -21 80 -75 80 -116 0 -44 -31 -98 -71 -121 -28 -16 -52
-20 -134 -20 l-100 0 -3 138 -3 137 98 0 c73 0 107 -4 133 -18z"/>
<path d="M9510 3565 l0 -75 -55 0 c-52 0 -55 -1 -55 -25 0 -24 3 -25 55 -25
l55 0 0 -125 c0 -144 11 -184 62 -215 26 -17 45 -20 95 -18 34 2 65 7 68 10 3
3 3 17 0 30 -6 23 -10 24 -58 20 -42 -3 -57 0 -77 16 -24 19 -25 26 -29 151
l-3 131 81 0 c80 0 81 0 81 25 0 25 -1 25 -80 25 l-80 0 0 75 0 75 -30 0 -30
0 0 -75z"/>
<path d="M9035 3482 c-73 -34 -125 -114 -125 -193 0 -79 61 -166 137 -195 56
-22 145 -14 185 16 28 21 28 21 28 0 0 -16 6 -20 35 -20 l35 0 0 200 0 200
-35 0 c-29 0 -35 -4 -35 -20 0 -20 -1 -20 -30 2 -42 31 -140 36 -195 10z m159
-52 c56 -21 66 -42 66 -140 0 -85 -2 -92 -26 -115 -54 -50 -156 -46 -210 6
-100 97 -38 259 98 259 26 0 58 -4 72 -10z"/>
<path d="M9934 3489 c-65 -19 -134 -122 -134 -199 0 -110 97 -209 206 -210 47
0 101 16 127 38 15 14 17 13 17 -6 0 -18 6 -22 30 -22 l30 0 0 200 0 200 -30
0 c-23 0 -30 -5 -30 -19 0 -17 -3 -17 -47 5 -49 25 -111 30 -169 13z m166 -65
c45 -30 50 -44 50 -136 0 -77 -3 -90 -22 -109 -48 -45 -137 -53 -194 -19 -34
22 -74 90 -74 128 0 43 32 103 69 128 44 30 132 34 171 8z"/>
<path d="M10814 3490 c-48 -15 -111 -82 -125 -132 -47 -176 97 -317 273 -268
86 24 138 101 138 202 0 119 -77 200 -193 205 -34 1 -76 -2 -93 -7z m172 -81
c37 -34 54 -72 54 -119 0 -157 -208 -209 -281 -70 -37 68 -15 152 52 198 47
32 136 28 175 -9z"/>
<path d="M11365 3486 c-16 -7 -39 -23 -49 -35 -26 -29 -36 -26 -36 9 0 27 -3
30 -30 30 l-30 0 0 -200 0 -200 30 0 30 0 0 131 0 131 34 34 c20 20 52 38 80
46 41 11 46 15 46 40 0 22 -4 28 -22 28 -13 -1 -36 -7 -53 -14z"/>
<path d="M11670 3493 c-8 -3 -27 -15 -42 -25 -28 -19 -28 -19 -28 1 0 17 -6
21 -30 21 l-30 0 0 -200 0 -200 30 0 30 0 0 138 c0 151 6 169 60 197 48 25
105 19 142 -14 l33 -29 3 -146 3 -146 30 0 29 0 0 143 c0 151 2 159 50 191 32
21 109 21 139 0 40 -29 51 -73 51 -209 l0 -125 31 0 31 0 -4 153 c-3 150 -4
154 -31 190 -42 55 -79 70 -155 64 -51 -4 -71 -11 -102 -35 l-38 -31 -18 20
c-11 12 -31 27 -46 35 -27 14 -109 18 -138 7z"/>
<path d="M12419 3477 c-68 -36 -103 -93 -107 -175 -3 -56 0 -74 20 -112 54
-100 179 -139 281 -87 44 23 47 23 47 6 0 -14 7 -19 30 -19 l30 0 0 200 0 200
-30 0 c-23 0 -30 -5 -30 -19 0 -17 -3 -17 -47 5 -62 32 -135 32 -194 1z m174
-48 c59 -31 67 -47 67 -139 0 -77 -2 -89 -22 -107 -37 -33 -64 -43 -116 -43
-150 0 -208 194 -83 277 38 26 116 31 154 12z"/>
<path d="M10330 2657 c-45 -23 -70 -73 -70 -143 l0 -64 -60 0 c-57 0 -60 -1
-60 -25 0 -22 4 -24 58 -27 l57 -3 3 -172 2 -173 30 0 30 0 0 175 0 175 80 0
c79 0 80 0 80 25 0 25 -1 25 -80 25 l-80 0 0 56 c0 49 4 59 30 86 28 28 36 30
80 26 49 -5 50 -5 50 23 0 29 0 29 -62 29 -35 0 -74 -6 -88 -13z"/>
<path d="M8510 2535 l0 -124 -34 20 c-19 11 -60 23 -90 26 -73 8 -150 -28
-192 -89 -26 -37 -29 -50 -29 -119 0 -70 3 -81 30 -121 58 -82 168 -111 264
-68 52 24 51 24 51 5 0 -10 10 -15 30 -15 l30 0 0 305 0 305 -30 0 -30 0 0
-125z m-67 -146 c59 -31 67 -47 67 -139 0 -81 -2 -88 -27 -112 -124 -117 -319
25 -247 179 34 69 140 107 207 72z"/>
<path d="M13228 2639 c-22 -12 -23 -52 -3 -69 12 -10 21 -10 40 -2 31 14 34
56 6 72 -23 12 -22 12 -43 -1z"/>
<path d="M13630 2598 c-36 -64 -37 -68 -5 -68 19 0 34 14 65 60 l41 60 -35 0
c-32 0 -38 -5 -66 -52z"/>
<path d="M9470 2345 l0 -295 35 0 35 0 0 295 0 295 -35 0 -35 0 0 -295z"/>
<path d="M8827 2445 c-80 -28 -126 -100 -127 -198 0 -91 43 -158 122 -192 43
-17 124 -20 165 -4 29 11 93 67 93 81 0 17 -62 7 -91 -14 -23 -17 -44 -23 -84
-22 -76 0 -123 36 -140 107 l-7 27 171 0 171 0 0 38 c-1 135 -140 225 -273
177z m149 -60 c30 -19 51 -52 56 -85 l3 -25 -139 -3 -138 -3 7 28 c23 93 133
139 211 88z"/>
<path d="M9827 2446 c-20 -8 -44 -19 -52 -26 -13 -10 -15 -9 -15 9 0 17 -6 21
-35 21 l-35 0 0 -200 0 -200 35 0 35 0 0 143 c0 136 1 145 23 164 35 33 62 43
112 43 40 0 52 -5 81 -34 l34 -34 0 -141 0 -141 35 0 35 0 0 109 c0 186 -19
243 -96 281 -46 23 -102 25 -157 6z"/>
<path d="M10655 2445 c-57 -20 -111 -84 -126 -149 -9 -44 -9 -62 5 -108 52
-180 307 -203 391 -35 43 87 29 176 -39 243 -61 62 -145 79 -231 49z m151 -61
c72 -34 101 -141 58 -214 -55 -94 -197 -98 -252 -8 -20 32 -26 66 -24 120 2
30 54 95 86 108 34 14 96 11 132 -6z"/>
<path d="M11227 2450 c-16 -5 -44 -20 -63 -35 l-34 -26 0 30 c0 28 -3 31 -30
31 l-30 0 0 -200 0 -200 30 0 30 0 0 134 0 134 36 31 c19 17 55 37 80 43 39
11 44 15 44 40 0 30 -11 33 -63 18z"/>
<path d="M11510 2449 c-13 -6 -33 -17 -42 -26 -17 -15 -18 -15 -18 5 0 18 -6
22 -30 22 l-30 0 0 -200 0 -200 30 0 30 0 0 143 c0 100 4 148 13 159 36 44
103 61 161 38 45 -17 56 -55 56 -205 l0 -135 36 0 36 0 -3 144 c-4 155 -2 164
52 192 34 17 89 18 124 2 46 -21 55 -54 55 -203 l0 -135 30 0 30 0 0 149 c0
137 -2 150 -22 181 -41 59 -72 75 -148 75 -61 0 -74 -4 -113 -32 -36 -25 -47
-28 -51 -17 -15 39 -138 66 -196 43z"/>
<path d="M12274 2441 c-69 -32 -124 -115 -124 -191 0 -75 60 -169 127 -197 48
-20 132 -16 178 7 47 24 45 24 45 5 0 -10 11 -15 35 -15 l35 0 0 200 0 200
-35 0 c-27 0 -35 -4 -35 -19 0 -17 -3 -17 -47 5 -56 29 -122 31 -179 5z m196
-76 c29 -28 30 -32 30 -121 0 -88 -1 -94 -26 -113 -92 -72 -225 -30 -254 80
-15 53 1 107 42 146 43 40 52 43 121 40 47 -3 62 -8 87 -32z"/>
<path d="M12825 2447 c-84 -33 -124 -87 -132 -177 -9 -98 32 -175 112 -211 43
-20 129 -25 168 -10 38 15 94 68 106 101 10 29 9 30 -24 30 -25 0 -35 -5 -40
-20 -19 -58 -136 -85 -192 -44 -67 51 -91 136 -56 204 43 83 151 107 218 49
19 -17 35 -37 35 -45 0 -9 12 -14 35 -14 19 0 35 2 35 5 0 15 -40 82 -58 98
-46 42 -145 58 -207 34z"/>
<path d="M13546 2445 c-75 -26 -136 -116 -136 -199 0 -80 71 -178 144 -197
104 -28 209 9 254 89 100 178 -69 376 -262 307z m136 -54 c96 -37 124 -177 49
-252 -108 -107 -291 1 -252 149 10 36 60 94 91 105 24 9 87 8 112 -2z"/>
<path d="M14099 2450 c-14 -4 -38 -15 -52 -25 -26 -17 -27 -17 -27 4 0 17 -6
21 -30 21 l-30 0 0 -200 0 -200 30 0 30 0 0 145 0 145 42 30 c69 50 167 37
198 -27 9 -18 15 -75 18 -160 l4 -133 30 0 30 0 -4 148 c-3 135 -5 150 -27
186 -39 62 -130 91 -212 66z"/>
<path d="M13220 2250 l0 -200 30 0 30 0 0 200 0 200 -30 0 -30 0 0 -200z"/>
<path d="M9620 1315 l0 -305 30 0 c20 0 30 5 30 15 0 19 3 19 47 -5 45 -24
137 -27 186 -7 78 33 137 145 120 229 -28 147 -185 222 -310 148 -19 -11 -36
-20 -39 -20 -2 0 -4 56 -4 125 l0 125 -30 0 -30 0 0 -305z m270 27 c110 -55
107 -222 -4 -273 -50 -23 -76 -24 -124 -4 -71 30 -82 49 -82 139 1 89 7 102
60 135 43 26 103 27 150 3z"/>
<path d="M12280 1315 l0 -305 30 0 30 0 0 305 0 305 -30 0 -30 0 0 -305z"/>
<path d="M8382 1558 c-10 -24 -69 -154 -130 -289 -62 -135 -112 -249 -112
-253 0 -3 15 -6 33 -6 31 0 34 3 67 80 l35 80 156 0 157 0 33 -80 c34 -79 34
-80 71 -80 l36 0 -77 173 c-204 450 -184 412 -218 415 -29 3 -33 -1 -51 -40z
m116 -185 l60 -138 -121 -3 c-66 -1 -122 0 -125 2 -6 6 110 276 119 276 4 0
33 -62 67 -137z"/>
<path d="M10164 1586 c-9 -23 -1 -48 19 -60 25 -16 52 4 52 40 0 25 -4 29 -33
32 -22 2 -34 -2 -38 -12z"/>
<path d="M11430 1485 l0 -75 -55 0 c-52 0 -55 -1 -55 -25 0 -24 3 -25 55 -25
l55 0 0 -125 c0 -139 10 -178 55 -213 22 -18 41 -22 96 -22 70 0 84 7 74 39
-5 15 -15 18 -60 17 -44 -1 -59 3 -77 22 -22 21 -23 31 -23 150 l0 127 73 3
c69 3 72 4 72 27 0 24 -2 25 -75 25 l-75 0 0 75 0 75 -30 0 -30 0 0 -75z"/>
<path d="M8964 1409 c-17 -5 -37 -16 -44 -24 -17 -21 -30 -19 -30 5 0 16 -7
20 -30 20 l-30 0 0 -200 0 -200 30 0 30 0 0 138 c0 153 5 168 64 196 53 25
100 21 138 -13 l33 -29 3 -146 3 -146 30 0 29 0 0 143 c0 136 1 145 23 164 34
31 62 43 104 43 88 0 113 -50 113 -225 l0 -125 30 0 30 0 0 138 c0 152 -13
199 -64 240 -55 43 -166 37 -232 -13 l-31 -24 -23 24 c-38 40 -109 54 -176 34z"/>
<path d="M10495 1405 c-53 -19 -111 -82 -125 -136 -39 -142 54 -268 196 -269
75 0 123 19 159 62 l28 33 -37 3 c-25 2 -42 -2 -49 -12 -15 -19 -60 -36 -98
-36 -67 0 -139 62 -139 119 0 20 7 21 168 23 l167 3 -3 40 c-1 22 -13 60 -25
85 -18 35 -34 51 -77 73 -59 30 -105 33 -165 12z m166 -82 c16 -15 31 -43 35
-60 l7 -33 -138 0 -137 0 6 33 c19 97 155 133 227 60z"/>
<path d="M11034 1411 c-17 -4 -42 -15 -55 -24 -31 -22 -39 -21 -39 3 0 16 -7
20 -30 20 l-30 0 0 -200 0 -200 30 0 29 0 3 141 3 142 38 31 c34 27 47 31 98
31 51 0 62 -4 86 -28 28 -27 28 -29 31 -172 l3 -145 30 0 29 0 0 149 c0 137
-2 150 -22 181 -13 18 -34 42 -48 52 -29 21 -110 31 -156 19z"/>
<path d="M11853 1404 c-78 -28 -133 -113 -133 -204 0 -61 43 -136 96 -170 41
-25 58 -30 113 -30 48 0 75 5 99 20 39 24 42 24 42 5 0 -10 10 -15 30 -15 l30
0 0 200 0 200 -30 0 c-23 0 -30 -5 -30 -19 0 -18 -1 -18 -41 2 -53 26 -123 31
-176 11z m150 -55 c60 -31 67 -46 67 -145 0 -87 -1 -94 -26 -113 -86 -67 -203
-41 -245 55 -34 76 -9 150 65 195 35 21 105 25 139 8z"/>
<path d="M10170 1210 l0 -200 30 0 30 0 0 200 0 200 -30 0 -30 0 0 -200z"/>
</g>
</svg>
